<svg width="40" height="40" viewBox="0 0 40 40" xmlns="http://www.w3.org/2000/svg">
  <!-- Blue background circle -->
  <circle cx="20" cy="20" r="18" fill="#3B82F6" stroke="#2563eb" stroke-width="2"/>
  
  <!-- Link symbol icon -->
  <g transform="translate(6, 10)">
    <path d="M12 9.5c0-1.38 1.12-2.5 2.5-2.5h3c1.38 0 2.5 1.12 2.5 2.5s-1.12 2.5-2.5 2.5h-3c-1.38 0-2.5-1.12-2.5-2.5z" fill="white" opacity="0.9"/>
    <path d="M24 14.5c0 1.38-1.12 2.5-2.5 2.5h-3c-1.38 0-2.5-1.12-2.5-2.5s1.12-2.5 2.5-2.5h3c1.38 0 2.5 1.12 2.5 2.5z" fill="white" opacity="0.9"/>
    <path d="M14.5 12h7v1h-7v-1z" fill="white"/>
    <path d="M28 8l4 4-4 4M28 12h8" stroke="white" stroke-width="2" fill="none" stroke-linecap="round" stroke-linejoin="round"/>
  </g>
</svg>
