<svg width="32" height="32" viewBox="0 0 32 32" xmlns="http://www.w3.org/2000/svg">
  <!-- Background circle -->
  <circle cx="16" cy="16" r="15" fill="#3B82F6" stroke="#1E40AF" stroke-width="1"/>
  
  <!-- Link icon -->
  <g transform="translate(8, 8)">
    <!-- Chain links -->
    <path d="M6 5c0-.83.67-1.5 1.5-1.5h2c.83 0 1.5.67 1.5 1.5s-.67 1.5-1.5 1.5h-2C6.67 6.5 6 5.83 6 5z" fill="white" opacity="0.9"/>
    <path d="M10 11c0 .83-.67 1.5-1.5 1.5h-2C5.67 12.5 5 11.83 5 11s.67-1.5 1.5-1.5h2c.83 0 1.5.67 1.5 1.5z" fill="white" opacity="0.9"/>
    <path d="M7.5 8h1v1h-1V8z" fill="white"/>
    
    <!-- Arrow -->
    <path d="M11 4l2 2-2 2M11 6h4" stroke="white" stroke-width="1.5" fill="none" stroke-linecap="round"/>
  </g>
</svg>